<svg width="38" height="38" viewBox="0 0 38 38" fill="none" xmlns="http://www.w3.org/2000/svg">
<path d="M3.50537 34.4744C3.50537 27.7073 8.99115 22.2215 15.7582 22.2215C22.5253 22.2215 28.011 27.7073 28.011 34.4744H3.50537ZM15.7582 20.6899C10.6809 20.6899 6.56858 16.5776 6.56858 11.5003C6.56858 6.42303 10.6809 2.31067 15.7582 2.31067C20.8355 2.31067 24.9478 6.42303 24.9478 11.5003C24.9478 16.5776 20.8355 20.6899 15.7582 20.6899ZM27.0351 24.1103C31.7607 25.318 35.3136 29.4561 35.644 34.4744H31.0743C31.0743 30.4772 29.543 26.8376 27.0351 24.1103ZM23.9371 20.6239C26.4378 18.3806 28.011 15.1242 28.011 11.5003C28.011 9.32949 27.4465 7.29054 26.4563 5.52225C29.9643 6.22234 32.6059 9.31723 32.6059 13.0319C32.6059 17.263 29.1789 20.6899 24.9478 20.6899C24.6052 20.6899 24.2678 20.6674 23.9371 20.6239Z" fill="#808080"/>
</svg>
