<svg width="40" height="40" viewBox="0 0 40 40" fill="none" xmlns="http://www.w3.org/2000/svg">
<path d="M29.375 25.9375C28.2617 25.9375 27.2344 26.3281 26.4297 26.9805L18.3359 21.125C18.4715 20.3811 18.4715 19.6189 18.3359 18.875L26.4297 13.0195C27.2344 13.6719 28.2617 14.0625 29.375 14.0625C31.9609 14.0625 34.0625 11.9609 34.0625 9.375C34.0625 6.78906 31.9609 4.6875 29.375 4.6875C26.7891 4.6875 24.6875 6.78906 24.6875 9.375C24.6875 9.82812 24.75 10.2617 24.8711 10.6758L17.1836 16.2422C16.043 14.7305 14.2305 13.75 12.1875 13.75C8.73438 13.75 5.9375 16.5469 5.9375 20C5.9375 23.4531 8.73438 26.25 12.1875 26.25C14.2305 26.25 16.043 25.2695 17.1836 23.7578L24.8711 29.3242C24.75 29.7383 24.6875 30.1758 24.6875 30.625C24.6875 33.2109 26.7891 35.3125 29.375 35.3125C31.9609 35.3125 34.0625 33.2109 34.0625 30.625C34.0625 28.0391 31.9609 25.9375 29.375 25.9375ZM29.375 7.34375C30.4961 7.34375 31.4062 8.25391 31.4062 9.375C31.4062 10.4961 30.4961 11.4062 29.375 11.4062C28.2539 11.4062 27.3438 10.4961 27.3438 9.375C27.3438 8.25391 28.2539 7.34375 29.375 7.34375ZM12.1875 23.4375C10.293 23.4375 8.75 21.8945 8.75 20C8.75 18.1055 10.293 16.5625 12.1875 16.5625C14.082 16.5625 15.625 18.1055 15.625 20C15.625 21.8945 14.082 23.4375 12.1875 23.4375ZM29.375 32.6562C28.2539 32.6562 27.3438 31.7461 27.3438 30.625C27.3438 29.5039 28.2539 28.5938 29.375 28.5938C30.4961 28.5938 31.4062 29.5039 31.4062 30.625C31.4062 31.7461 30.4961 32.6562 29.375 32.6562Z" fill="white"/>
</svg>
