<svg width="38" height="38" viewBox="0 0 38 38" fill="none" xmlns="http://www.w3.org/2000/svg">
<path d="M18.8234 34.5072C10.3646 34.5072 3.50732 27.6499 3.50732 19.1912C3.50732 10.7323 10.3646 3.87512 18.8234 3.87512C27.2822 3.87512 34.1395 10.7323 34.1395 19.1912C34.1395 27.6499 27.2822 34.5072 18.8234 34.5072ZM14.0603 20.9844L14.0797 20.9721C14.9676 23.9035 15.4116 25.3692 15.4116 25.3692C15.5835 25.8448 15.8199 25.9296 16.1068 25.8909C16.3935 25.852 16.5458 25.6968 16.7329 25.5162C16.7329 25.5162 17.3399 24.9304 18.5538 23.7589L22.4608 26.6498C23.1727 27.0431 23.6867 26.8402 23.8635 25.988L26.4025 14.0088C26.6828 12.8939 26.1912 12.4467 25.3266 12.8006L10.4194 18.5588C9.40244 18.9676 9.40736 19.5365 10.2343 19.7902L14.0603 20.9844Z" fill="#808080"/>
</svg>
